<svg version="1.1" xmlns="http://www.w3.org/2000/svg" xmlns:xlink="http://www.w3.org/1999/xlink" width="159" height="50.51563" viewBox="0,0,159,50.51563"><defs><linearGradient x1="240" y1="154.74219" x2="240" y2="205.25781" gradientUnits="userSpaceOnUse" id="color-1"><stop offset="0" stop-color="#000000" stop-opacity="0"/><stop offset="1" stop-color="#000000" stop-opacity="0"/></linearGradient><linearGradient x1="219.01111" y1="159.36686" x2="219.01111" y2="200.63314" gradientUnits="userSpaceOnUse" id="color-2"><stop offset="0" stop-color="#8e8e8e"/><stop offset="1" stop-color="#6e6e6e"/></linearGradient><linearGradient x1="260.98889" y1="159.36686" x2="260.98889" y2="200.63314" gradientUnits="userSpaceOnUse" id="color-3"><stop offset="0" stop-color="#8e8e8e"/><stop offset="1" stop-color="#6e6e6e"/></linearGradient></defs><g transform="translate(-160.5,-154.74218)"><g data-paper-data="{&quot;isPaintingLayer&quot;:true}" fill-rule="nonzero" stroke="none" stroke-linecap="butt" stroke-linejoin="miter" stroke-miterlimit="10" stroke-dasharray="" stroke-dashoffset="0" style="mix-blend-mode: normal"><path d="M160.5,205.25781v-50.51563h159v50.51563z" fill="url(#color-1)" stroke-width="0"/><g stroke-width="0"><path d="M176.25868,200.63314c-5.9364,0 -12.03212,-8.28733 -12.03212,-12.80678c0,-7.40483 0,-9.52679 0,-14.22975c0,-4.47301 6.69053,-14.22975 12.54413,-14.22975c21.29339,0 69.09077,0 82.94483,0c6.78236,0 14.08014,0 14.08014,0c0,0 0,10.53054 0,13.51827c0,6.83833 0,10.35143 0,15.65273c0,4.90506 0,12.09529 0,12.09529c0,0 -80.63504,0 -97.53698,0z" data-paper-data="{&quot;index&quot;:null}" fill="url(#color-2)"/><path d="M206.20434,200.63314c0,0 0,-7.19023 0,-12.09529c0,-5.3013 0,-8.8144 0,-15.65273c0,-2.98772 0,-13.51827 0,-13.51827c0,0 7.29778,0 14.08014,0c13.85406,0 61.65145,0 82.94483,0c5.85359,0 12.54413,9.75674 12.54413,14.22975c0,4.70296 0,6.82493 0,14.22975c0,4.51944 -6.09572,12.80678 -12.03212,12.80678c-16.90194,0 -97.53698,0 -97.53698,0z" fill="url(#color-3)"/></g><text transform="translate(176.21436,186.69144) scale(0.56308,0.55762)" font-size="40" xml:space="preserve" fill="#ffffff" fill-rule="nonzero" stroke="none" stroke-width="1" stroke-linecap="butt" stroke-linejoin="miter" stroke-miterlimit="10" stroke-dasharray="" stroke-dashoffset="0" font-family="Sans Serif" font-weight="normal" text-anchor="start" style="mix-blend-mode: normal"><tspan x="0" dy="0">+1 TPS 420$</tspan></text></g></g></svg>